<?xml version="1.0" encoding="UTF-8" standalone="yes"?><svg xmlns="http://www.w3.org/2000/svg" xmlns:xlink="http://www.w3.org/1999/xlink" height="526pt" style="width:640px;height:526px;" version="1.1" viewBox="0 0 640 526" width="640pt"><defs><filter height="300%" id="f1" width="300%" x="-1" y="-1"><feGaussianBlur result="blurOut" stdDeviation="2.0"/><feColorMatrix in="blurOut" result="blurOut2" type="matrix" values="0 0 0 0 0 0 0 0 0 0 0 0 0 0 0 0 0 0 .4 0"/><feOffset dx="4.0" dy="4.0" in="blurOut2" result="blurOut3"/><feBlend in="SourceGraphic" in2="blurOut3" mode="normal"/></filter></defs><g><rect fill="#EEEEEE" height="524" style="stroke: #A80036; stroke-width: 1.0;" width="207" x="100" y="1"/><text fill="#000000" font-family="sans-serif" font-size="13" font-weight="bold" lengthAdjust="spacingAndGlyphs" textLength="31" x="188" y="13.5684">view</text><rect fill="#EEEEFF" height="524" style="stroke: #A80036; stroke-width: 1.0;" width="118" x="309" y="1"/><text fill="#000000" font-family="sans-serif" font-size="13" font-weight="bold" lengthAdjust="spacingAndGlyphs" textLength="65" x="335.5" y="13.5684">controller</text><rect fill="#FFFFEE" height="524" style="stroke: #A80036; stroke-width: 1.0;" width="210" x="429" y="1"/><text fill="#000000" font-family="sans-serif" font-size="13" font-weight="bold" lengthAdjust="spacingAndGlyphs" textLength="42" x="513" y="13.5684">model</text><line style="stroke: #A80036; stroke-width: 1.0; stroke-dasharray: 5.0,5.0;" x1="23" x2="23" y1="83.4883" y2="438.9043"/><line style="stroke: #A80036; stroke-width: 1.0; stroke-dasharray: 5.0,5.0;" x1="123" x2="123" y1="83.4883" y2="438.9043"/><line style="stroke: #A80036; stroke-width: 1.0; stroke-dasharray: 5.0,5.0;" x1="249" x2="249" y1="83.4883" y2="438.9043"/><line style="stroke: #A80036; stroke-width: 1.0; stroke-dasharray: 5.0,5.0;" x1="368" x2="368" y1="83.4883" y2="438.9043"/><line style="stroke: #A80036; stroke-width: 1.0; stroke-dasharray: 5.0,5.0;" x1="467" x2="467" y1="83.4883" y2="438.9043"/><line style="stroke: #A80036; stroke-width: 1.0; stroke-dasharray: 5.0,5.0;" x1="573" x2="573" y1="83.4883" y2="438.9043"/><text fill="#000000" font-family="sans-serif" font-size="14" lengthAdjust="spacingAndGlyphs" textLength="30" x="5" y="80.5352">user</text><ellipse cx="23" cy="10" fill="#FEFECE" filter="url(#f1)" rx="8" ry="8" style="stroke: #A80036; stroke-width: 2.0;"/><path d="M23,18 L23,45 M10,26 L36,26 M23,45 L10,60 M23,45 L36,60 " fill="#FEFECE" filter="url(#f1)" style="stroke: #A80036; stroke-width: 2.0;"/><text fill="#000000" font-family="sans-serif" font-size="14" lengthAdjust="spacingAndGlyphs" textLength="30" x="5" y="451.0469">user</text><ellipse cx="23" cy="464" fill="#FEFECE" filter="url(#f1)" rx="8" ry="8" style="stroke: #A80036; stroke-width: 2.0;"/><path d="M23,472 L23,499 M10,480 L36,480 M23,499 L10,514 M23,499 L36,514 " fill="#FEFECE" filter="url(#f1)" style="stroke: #A80036; stroke-width: 2.0;"/><rect fill="#FEFECE" filter="url(#f1)" height="30.4883" style="stroke: #A80036; stroke-width: 1.5;" width="34" x="104" y="48"/><text fill="#000000" font-family="sans-serif" font-size="14" lengthAdjust="spacingAndGlyphs" textLength="20" x="111" y="68.5352">JSF</text><rect fill="#FEFECE" filter="url(#f1)" height="30.4883" style="stroke: #A80036; stroke-width: 1.5;" width="34" x="104" y="437.5117"/><text fill="#000000" font-family="sans-serif" font-size="14" lengthAdjust="spacingAndGlyphs" textLength="20" x="111" y="458.0469">JSF</text><rect fill="#FEFECE" filter="url(#f1)" height="30.4883" style="stroke: #A80036; stroke-width: 1.5;" width="104" x="195" y="48"/><text fill="#000000" font-family="sans-serif" font-size="14" lengthAdjust="spacingAndGlyphs" textLength="90" x="202" y="68.5352">Backing Bean</text><rect fill="#FEFECE" filter="url(#f1)" height="30.4883" style="stroke: #A80036; stroke-width: 1.5;" width="104" x="195" y="437.5117"/><text fill="#000000" font-family="sans-serif" font-size="14" lengthAdjust="spacingAndGlyphs" textLength="90" x="202" y="458.0469">Backing Bean</text><rect fill="#FEFECE" filter="url(#f1)" height="30.4883" style="stroke: #A80036; stroke-width: 1.5;" width="106" x="313" y="48"/><text fill="#000000" font-family="sans-serif" font-size="14" lengthAdjust="spacingAndGlyphs" textLength="92" x="320" y="68.5352">Service Beans</text><rect fill="#FEFECE" filter="url(#f1)" height="30.4883" style="stroke: #A80036; stroke-width: 1.5;" width="106" x="313" y="437.5117"/><text fill="#000000" font-family="sans-serif" font-size="14" lengthAdjust="spacingAndGlyphs" textLength="92" x="320" y="458.0469">Service Beans</text><rect fill="#FEFECE" filter="url(#f1)" height="30.4883" style="stroke: #A80036; stroke-width: 1.5;" width="64" x="433" y="48"/><text fill="#000000" font-family="sans-serif" font-size="14" lengthAdjust="spacingAndGlyphs" textLength="50" x="440" y="68.5352">@Entity</text><rect fill="#FEFECE" filter="url(#f1)" height="30.4883" style="stroke: #A80036; stroke-width: 1.5;" width="64" x="433" y="437.5117"/><text fill="#000000" font-family="sans-serif" font-size="14" lengthAdjust="spacingAndGlyphs" textLength="50" x="440" y="458.0469">@Entity</text><text fill="#000000" font-family="sans-serif" font-size="14" lengthAdjust="spacingAndGlyphs" textLength="118" x="511" y="80.5352">EntityManager (?)</text><path d="M555,35 C555,25 573,25 573,25 C573,25 591,25 591,35 L591,57 C591,67 573,67 573,67 C573,67 555,67 555,57 L555,35 " fill="#FEFECE" filter="url(#f1)" style="stroke: #A80036; stroke-width: 1.5;"/><path d="M555,35 C555,45 573,45 573,45 C573,45 591,45 591,35 " fill="none" style="stroke: #A80036; stroke-width: 1.5;"/><text fill="#000000" font-family="sans-serif" font-size="14" lengthAdjust="spacingAndGlyphs" textLength="118" x="511" y="451.0469">EntityManager (?)</text><path d="M555,464 C555,454 573,454 573,454 C573,454 591,454 591,464 L591,486 C591,496 573,496 573,496 C573,496 555,496 555,486 L555,464 " fill="#FEFECE" filter="url(#f1)" style="stroke: #A80036; stroke-width: 1.5;"/><path d="M555,464 C555,474 573,474 573,474 C573,474 591,474 591,464 " fill="none" style="stroke: #A80036; stroke-width: 1.5;"/><polygon fill="#A80036" points="111,110.4883,121,114.4883,111,118.4883,115,114.4883" style="stroke: #A80036; stroke-width: 1.0;"/><line style="stroke: #A80036; stroke-width: 1.0;" x1="23" x2="117" y1="114.4883" y2="114.4883"/><text fill="#000000" font-family="sans-serif" font-size="13" lengthAdjust="spacingAndGlyphs" textLength="76" x="30" y="110.0566">click button</text><polygon fill="#A80036" points="237,139.7988,247,143.7988,237,147.7988,241,143.7988" style="stroke: #A80036; stroke-width: 1.0;"/><line style="stroke: #A80036; stroke-width: 1.0;" x1="123" x2="243" y1="143.7988" y2="143.7988"/><text fill="#000000" font-family="sans-serif" font-size="13" lengthAdjust="spacingAndGlyphs" textLength="102" x="130" y="139.3672">button_clicked()</text><line style="stroke: #A80036; stroke-width: 1.0;" x1="249" x2="291" y1="173.4199" y2="173.4199"/><line style="stroke: #A80036; stroke-width: 1.0;" x1="291" x2="291" y1="173.4199" y2="186.4199"/><line style="stroke: #A80036; stroke-width: 1.0;" x1="250" x2="291" y1="186.4199" y2="186.4199"/><polygon fill="#A80036" points="260,182.4199,250,186.4199,260,190.4199,256,186.4199" style="stroke: #A80036; stroke-width: 1.0;"/><text fill="#000000" font-family="sans-serif" font-size="13" lengthAdjust="spacingAndGlyphs" textLength="49" x="256" y="168.6777">validate</text><polygon fill="#A80036" points="356,211.4199,366,215.4199,356,219.4199,360,215.4199" style="stroke: #A80036; stroke-width: 1.0;"/><line style="stroke: #A80036; stroke-width: 1.0;" x1="249" x2="362" y1="215.4199" y2="215.4199"/><text fill="#000000" font-family="sans-serif" font-size="13" lengthAdjust="spacingAndGlyphs" textLength="45" x="256" y="210.9883">change</text><polygon fill="#A80036" points="455,240.7305,465,244.7305,455,248.7305,459,244.7305" style="stroke: #A80036; stroke-width: 1.0;"/><line style="stroke: #A80036; stroke-width: 1.0;" x1="368" x2="461" y1="244.7305" y2="244.7305"/><text fill="#000000" font-family="sans-serif" font-size="13" lengthAdjust="spacingAndGlyphs" textLength="45" x="375" y="240.2988">change</text><polygon fill="#A80036" points="379,270.041,369,274.041,379,278.041,375,274.041" style="stroke: #A80036; stroke-width: 1.0;"/><line style="stroke: #A80036; stroke-width: 1.0; stroke-dasharray: 2.0,2.0;" x1="373" x2="466" y1="274.041" y2="274.041"/><text fill="#000000" font-family="sans-serif" font-size="13" lengthAdjust="spacingAndGlyphs" textLength="16" x="385" y="269.6094">ok</text><polygon fill="#A80036" points="561,299.3516,571,303.3516,561,307.3516,565,303.3516" style="stroke: #A80036; stroke-width: 1.0;"/><line style="stroke: #A80036; stroke-width: 1.0;" x1="368" x2="567" y1="303.3516" y2="303.3516"/><text fill="#000000" font-family="sans-serif" font-size="13" lengthAdjust="spacingAndGlyphs" textLength="43" x="375" y="298.9199">persist</text><polygon fill="#A80036" points="379,328.6621,369,332.6621,379,336.6621,375,332.6621" style="stroke: #A80036; stroke-width: 1.0;"/><line style="stroke: #A80036; stroke-width: 1.0; stroke-dasharray: 2.0,2.0;" x1="373" x2="572" y1="332.6621" y2="332.6621"/><text fill="#000000" font-family="sans-serif" font-size="13" lengthAdjust="spacingAndGlyphs" textLength="16" x="385" y="328.2305">ok</text><polygon fill="#A80036" points="260,357.9727,250,361.9727,260,365.9727,256,361.9727" style="stroke: #A80036; stroke-width: 1.0;"/><line style="stroke: #A80036; stroke-width: 1.0; stroke-dasharray: 2.0,2.0;" x1="254" x2="367" y1="361.9727" y2="361.9727"/><text fill="#000000" font-family="sans-serif" font-size="13" lengthAdjust="spacingAndGlyphs" textLength="16" x="266" y="357.541">ok</text><polygon fill="#A80036" points="134,387.2832,124,391.2832,134,395.2832,130,391.2832" style="stroke: #A80036; stroke-width: 1.0;"/><line style="stroke: #A80036; stroke-width: 1.0; stroke-dasharray: 2.0,2.0;" x1="128" x2="248" y1="391.2832" y2="391.2832"/><text fill="#000000" font-family="sans-serif" font-size="13" lengthAdjust="spacingAndGlyphs" textLength="16" x="140" y="386.8516">ok</text><polygon fill="#A80036" points="34,416.5938,24,420.5938,34,424.5938,30,420.5938" style="stroke: #A80036; stroke-width: 1.0;"/><line style="stroke: #A80036; stroke-width: 1.0; stroke-dasharray: 2.0,2.0;" x1="28" x2="122" y1="420.5938" y2="420.5938"/><text fill="#000000" font-family="sans-serif" font-size="13" lengthAdjust="spacingAndGlyphs" textLength="28" x="40" y="416.1621">"OK"</text></g></svg>