<?xml version="1.0" encoding="UTF-8" standalone="yes"?><svg xmlns="http://www.w3.org/2000/svg" xmlns:xlink="http://www.w3.org/1999/xlink" height="585pt" style="width:768px;height:585px;" version="1.1" viewBox="0 0 768 585" width="768pt"><defs><filter height="300%" id="f1" width="300%" x="-1" y="-1"><feGaussianBlur result="blurOut" stdDeviation="2.0"/><feColorMatrix in="blurOut" result="blurOut2" type="matrix" values="0 0 0 0 0 0 0 0 0 0 0 0 0 0 0 0 0 0 .4 0"/><feOffset dx="4.0" dy="4.0" in="blurOut2" result="blurOut3"/><feBlend in="SourceGraphic" in2="blurOut3" mode="normal"/></filter></defs><g><rect fill="#EEEEEE" height="583" style="stroke: #A80036; stroke-width: 1.0;" width="207" x="100" y="1"/><text fill="#000000" font-family="sans-serif" font-size="13" font-weight="bold" lengthAdjust="spacingAndGlyphs" textLength="31" x="188" y="13.5684">view</text><rect fill="#FFFFEE" height="583" style="stroke: #A80036; stroke-width: 1.0;" width="237" x="318" y="1"/><text fill="#000000" font-family="sans-serif" font-size="13" font-weight="bold" lengthAdjust="spacingAndGlyphs" textLength="67" x="403" y="13.5684">command</text><rect fill="#EEEEEE" height="583" style="stroke: #A80036; stroke-width: 1.0;" width="210" x="557" y="1"/><text fill="#000000" font-family="sans-serif" font-size="13" font-weight="bold" lengthAdjust="spacingAndGlyphs" textLength="42" x="641" y="13.5684">model</text><line style="stroke: #A80036; stroke-width: 1.0; stroke-dasharray: 5.0,5.0;" x1="23" x2="23" y1="83.4883" y2="497.5254"/><line style="stroke: #A80036; stroke-width: 1.0; stroke-dasharray: 5.0,5.0;" x1="123" x2="123" y1="83.4883" y2="497.5254"/><line style="stroke: #A80036; stroke-width: 1.0; stroke-dasharray: 5.0,5.0;" x1="249" x2="249" y1="83.4883" y2="497.5254"/><line style="stroke: #A80036; stroke-width: 1.0; stroke-dasharray: 5.0,5.0;" x1="387" x2="387" y1="83.4883" y2="497.5254"/><line style="stroke: #A80036; stroke-width: 1.0; stroke-dasharray: 5.0,5.0;" x1="506" x2="506" y1="83.4883" y2="497.5254"/><line style="stroke: #A80036; stroke-width: 1.0; stroke-dasharray: 5.0,5.0;" x1="595" x2="595" y1="83.4883" y2="497.5254"/><line style="stroke: #A80036; stroke-width: 1.0; stroke-dasharray: 5.0,5.0;" x1="701" x2="701" y1="83.4883" y2="497.5254"/><text fill="#000000" font-family="sans-serif" font-size="14" lengthAdjust="spacingAndGlyphs" textLength="30" x="5" y="80.5352">user</text><ellipse cx="23" cy="10" fill="#FEFECE" filter="url(#f1)" rx="8" ry="8" style="stroke: #A80036; stroke-width: 2.0;"/><path d="M23,18 L23,45 M10,26 L36,26 M23,45 L10,60 M23,45 L36,60 " fill="#FEFECE" filter="url(#f1)" style="stroke: #A80036; stroke-width: 2.0;"/><text fill="#000000" font-family="sans-serif" font-size="14" lengthAdjust="spacingAndGlyphs" textLength="30" x="5" y="510.0469">user</text><ellipse cx="23" cy="523" fill="#FEFECE" filter="url(#f1)" rx="8" ry="8" style="stroke: #A80036; stroke-width: 2.0;"/><path d="M23,531 L23,558 M10,539 L36,539 M23,558 L10,573 M23,558 L36,573 " fill="#FEFECE" filter="url(#f1)" style="stroke: #A80036; stroke-width: 2.0;"/><rect fill="#FEFECE" filter="url(#f1)" height="30.4883" style="stroke: #A80036; stroke-width: 1.5;" width="34" x="104" y="48"/><text fill="#000000" font-family="sans-serif" font-size="14" lengthAdjust="spacingAndGlyphs" textLength="20" x="111" y="68.5352">JSF</text><rect fill="#FEFECE" filter="url(#f1)" height="30.4883" style="stroke: #A80036; stroke-width: 1.5;" width="34" x="104" y="496.5117"/><text fill="#000000" font-family="sans-serif" font-size="14" lengthAdjust="spacingAndGlyphs" textLength="20" x="111" y="517.0469">JSF</text><rect fill="#FEFECE" filter="url(#f1)" height="30.4883" style="stroke: #A80036; stroke-width: 1.5;" width="104" x="195" y="48"/><text fill="#000000" font-family="sans-serif" font-size="14" lengthAdjust="spacingAndGlyphs" textLength="90" x="202" y="68.5352">Backing Bean</text><rect fill="#FEFECE" filter="url(#f1)" height="30.4883" style="stroke: #A80036; stroke-width: 1.5;" width="104" x="195" y="496.5117"/><text fill="#000000" font-family="sans-serif" font-size="14" lengthAdjust="spacingAndGlyphs" textLength="90" x="202" y="517.0469">Backing Bean</text><rect fill="#FEFECE" filter="url(#f1)" height="30.4883" style="stroke: #A80036; stroke-width: 1.5;" width="126" x="322" y="48"/><text fill="#000000" font-family="sans-serif" font-size="14" lengthAdjust="spacingAndGlyphs" textLength="112" x="329" y="68.5352">Engine (invoker)</text><rect fill="#FEFECE" filter="url(#f1)" height="30.4883" style="stroke: #A80036; stroke-width: 1.5;" width="126" x="322" y="496.5117"/><text fill="#000000" font-family="sans-serif" font-size="14" lengthAdjust="spacingAndGlyphs" textLength="112" x="329" y="517.0469">Engine (invoker)</text><rect fill="#FEFECE" filter="url(#f1)" height="30.4883" style="stroke: #A80036; stroke-width: 1.5;" width="85" x="462" y="48"/><text fill="#000000" font-family="sans-serif" font-size="14" lengthAdjust="spacingAndGlyphs" textLength="71" x="469" y="68.5352">Command</text><rect fill="#FEFECE" filter="url(#f1)" height="30.4883" style="stroke: #A80036; stroke-width: 1.5;" width="85" x="462" y="496.5117"/><text fill="#000000" font-family="sans-serif" font-size="14" lengthAdjust="spacingAndGlyphs" textLength="71" x="469" y="517.0469">Command</text><rect fill="#FEFECE" filter="url(#f1)" height="30.4883" style="stroke: #A80036; stroke-width: 1.5;" width="64" x="561" y="48"/><text fill="#000000" font-family="sans-serif" font-size="14" lengthAdjust="spacingAndGlyphs" textLength="50" x="568" y="68.5352">@Entity</text><rect fill="#FEFECE" filter="url(#f1)" height="30.4883" style="stroke: #A80036; stroke-width: 1.5;" width="64" x="561" y="496.5117"/><text fill="#000000" font-family="sans-serif" font-size="14" lengthAdjust="spacingAndGlyphs" textLength="50" x="568" y="517.0469">@Entity</text><text fill="#000000" font-family="sans-serif" font-size="14" lengthAdjust="spacingAndGlyphs" textLength="118" x="639" y="80.5352">EntityManager (?)</text><path d="M683,35 C683,25 701,25 701,25 C701,25 719,25 719,35 L719,57 C719,67 701,67 701,67 C701,67 683,67 683,57 L683,35 " fill="#FEFECE" filter="url(#f1)" style="stroke: #A80036; stroke-width: 1.5;"/><path d="M683,35 C683,45 701,45 701,45 C701,45 719,45 719,35 " fill="none" style="stroke: #A80036; stroke-width: 1.5;"/><text fill="#000000" font-family="sans-serif" font-size="14" lengthAdjust="spacingAndGlyphs" textLength="118" x="639" y="510.0469">EntityManager (?)</text><path d="M683,523 C683,513 701,513 701,513 C701,513 719,513 719,523 L719,545 C719,555 701,555 701,555 C701,555 683,555 683,545 L683,523 " fill="#FEFECE" filter="url(#f1)" style="stroke: #A80036; stroke-width: 1.5;"/><path d="M683,523 C683,533 701,533 701,533 C701,533 719,533 719,523 " fill="none" style="stroke: #A80036; stroke-width: 1.5;"/><polygon fill="#A80036" points="111,110.4883,121,114.4883,111,118.4883,115,114.4883" style="stroke: #A80036; stroke-width: 1.0;"/><line style="stroke: #A80036; stroke-width: 1.0;" x1="23" x2="117" y1="114.4883" y2="114.4883"/><text fill="#000000" font-family="sans-serif" font-size="13" lengthAdjust="spacingAndGlyphs" textLength="76" x="30" y="110.0566">click button</text><polygon fill="#A80036" points="237,139.7988,247,143.7988,237,147.7988,241,143.7988" style="stroke: #A80036; stroke-width: 1.0;"/><line style="stroke: #A80036; stroke-width: 1.0;" x1="123" x2="243" y1="143.7988" y2="143.7988"/><text fill="#000000" font-family="sans-serif" font-size="13" lengthAdjust="spacingAndGlyphs" textLength="102" x="130" y="139.3672">button_clicked()</text><line style="stroke: #A80036; stroke-width: 1.0;" x1="249" x2="291" y1="173.4199" y2="173.4199"/><line style="stroke: #A80036; stroke-width: 1.0;" x1="291" x2="291" y1="173.4199" y2="186.4199"/><line style="stroke: #A80036; stroke-width: 1.0;" x1="250" x2="291" y1="186.4199" y2="186.4199"/><polygon fill="#A80036" points="260,182.4199,250,186.4199,260,190.4199,256,186.4199" style="stroke: #A80036; stroke-width: 1.0;"/><text fill="#000000" font-family="sans-serif" font-size="13" lengthAdjust="spacingAndGlyphs" textLength="49" x="256" y="168.6777">validate</text><polygon fill="#A80036" points="494.5,211.4199,504.5,215.4199,494.5,219.4199,498.5,215.4199" style="stroke: #A80036; stroke-width: 1.0;"/><line style="stroke: #A80036; stroke-width: 1.0;" x1="249" x2="500.5" y1="215.4199" y2="215.4199"/><text fill="#000000" font-family="sans-serif" font-size="13" lengthAdjust="spacingAndGlyphs" textLength="93" x="256" y="210.9883">new (+params)</text><polygon fill="#A80036" points="375,240.7305,385,244.7305,375,248.7305,379,244.7305" style="stroke: #A80036; stroke-width: 1.0;"/><line style="stroke: #A80036; stroke-width: 1.0;" x1="249" x2="381" y1="244.7305" y2="244.7305"/><text fill="#000000" font-family="sans-serif" font-size="13" lengthAdjust="spacingAndGlyphs" textLength="114" x="256" y="240.2988">submit(command)</text><polygon fill="#A80036" points="494.5,270.041,504.5,274.041,494.5,278.041,498.5,274.041" style="stroke: #A80036; stroke-width: 1.0;"/><line style="stroke: #A80036; stroke-width: 1.0;" x1="387" x2="500.5" y1="274.041" y2="274.041"/><text fill="#000000" font-family="sans-serif" font-size="13" lengthAdjust="spacingAndGlyphs" textLength="82" x="394" y="269.6094">execute(ctxt)</text><polygon fill="#A80036" points="583,299.3516,593,303.3516,583,307.3516,587,303.3516" style="stroke: #A80036; stroke-width: 1.0;"/><line style="stroke: #A80036; stroke-width: 1.0;" x1="506.5" x2="589" y1="303.3516" y2="303.3516"/><text fill="#000000" font-family="sans-serif" font-size="13" lengthAdjust="spacingAndGlyphs" textLength="45" x="513.5" y="298.9199">change</text><polygon fill="#A80036" points="517.5,328.6621,507.5,332.6621,517.5,336.6621,513.5,332.6621" style="stroke: #A80036; stroke-width: 1.0;"/><line style="stroke: #A80036; stroke-width: 1.0; stroke-dasharray: 2.0,2.0;" x1="511.5" x2="594" y1="332.6621" y2="332.6621"/><text fill="#000000" font-family="sans-serif" font-size="13" lengthAdjust="spacingAndGlyphs" textLength="16" x="523.5" y="328.2305">ok</text><polygon fill="#A80036" points="689,357.9727,699,361.9727,689,365.9727,693,361.9727" style="stroke: #A80036; stroke-width: 1.0;"/><line style="stroke: #A80036; stroke-width: 1.0;" x1="506.5" x2="695" y1="361.9727" y2="361.9727"/><text fill="#000000" font-family="sans-serif" font-size="13" lengthAdjust="spacingAndGlyphs" textLength="43" x="513.5" y="357.541">persist</text><polygon fill="#A80036" points="517.5,387.2832,507.5,391.2832,517.5,395.2832,513.5,391.2832" style="stroke: #A80036; stroke-width: 1.0;"/><line style="stroke: #A80036; stroke-width: 1.0; stroke-dasharray: 2.0,2.0;" x1="511.5" x2="700" y1="391.2832" y2="391.2832"/><text fill="#000000" font-family="sans-serif" font-size="13" lengthAdjust="spacingAndGlyphs" textLength="16" x="523.5" y="386.8516">ok</text><polygon fill="#A80036" points="260,416.5938,250,420.5938,260,424.5938,256,420.5938" style="stroke: #A80036; stroke-width: 1.0;"/><line style="stroke: #A80036; stroke-width: 1.0; stroke-dasharray: 2.0,2.0;" x1="254" x2="505.5" y1="420.5938" y2="420.5938"/><text fill="#000000" font-family="sans-serif" font-size="13" lengthAdjust="spacingAndGlyphs" textLength="16" x="266" y="416.1621">ok</text><polygon fill="#A80036" points="134,445.9043,124,449.9043,134,453.9043,130,449.9043" style="stroke: #A80036; stroke-width: 1.0;"/><line style="stroke: #A80036; stroke-width: 1.0; stroke-dasharray: 2.0,2.0;" x1="128" x2="248" y1="449.9043" y2="449.9043"/><text fill="#000000" font-family="sans-serif" font-size="13" lengthAdjust="spacingAndGlyphs" textLength="16" x="140" y="445.4727">ok</text><polygon fill="#A80036" points="34,475.2148,24,479.2148,34,483.2148,30,479.2148" style="stroke: #A80036; stroke-width: 1.0;"/><line style="stroke: #A80036; stroke-width: 1.0; stroke-dasharray: 2.0,2.0;" x1="28" x2="122" y1="479.2148" y2="479.2148"/><text fill="#000000" font-family="sans-serif" font-size="13" lengthAdjust="spacingAndGlyphs" textLength="28" x="40" y="474.7832">"OK"</text></g></svg>