<?xml version="1.0" encoding="UTF-8" standalone="yes"?><svg xmlns="http://www.w3.org/2000/svg" xmlns:xlink="http://www.w3.org/1999/xlink" height="412pt" style="width:542px;height:412px;" version="1.1" viewBox="0 0 542 412" width="542pt"><defs><filter height="300%" id="f1" width="300%" x="-1" y="-1"><feGaussianBlur result="blurOut" stdDeviation="2.0"/><feColorMatrix in="blurOut" result="blurOut2" type="matrix" values="0 0 0 0 0 0 0 0 0 0 0 0 0 0 0 0 0 0 .4 0"/><feOffset dx="4.0" dy="4.0" in="blurOut2" result="blurOut3"/><feBlend in="SourceGraphic" in2="blurOut3" mode="normal"/></filter></defs><g><rect fill="#FEFECE" filter="url(#f1)" height="30.4883" style="stroke: #A80036; stroke-width: 1.5;" width="82" x="301.5" y="152.1094"/><text fill="#000000" font-family="sans-serif" font-size="14" lengthAdjust="spacingAndGlyphs" textLength="68" x="308.5" y="172.6445">command</text><rect fill="#DDDDDD" height="410" style="stroke: #A80036; stroke-width: 1.0;" width="173" x="297.5" y="1"/><text fill="#000000" font-family="sans-serif" font-size="13" font-weight="bold" lengthAdjust="spacingAndGlyphs" textLength="67" x="350.5" y="13.5684">command</text><line style="stroke: #A80036; stroke-width: 1.0; stroke-dasharray: 5.0,5.0;" x1="23" x2="23" y1="83.4883" y2="324.8398"/><line style="stroke: #A80036; stroke-width: 1.0; stroke-dasharray: 5.0,5.0;" x1="123" x2="123" y1="83.4883" y2="324.8398"/><line style="stroke: #A80036; stroke-width: 1.0; stroke-dasharray: 5.0,5.0;" x1="248.5" x2="248.5" y1="83.4883" y2="324.8398"/><line style="stroke: #A80036; stroke-width: 1.0; stroke-dasharray: 5.0,5.0;" x1="344.5" x2="344.5" y1="184.8535" y2="324.8398"/><line style="stroke: #A80036; stroke-width: 1.0; stroke-dasharray: 5.0,5.0;" x1="431.5" x2="431.5" y1="83.4883" y2="324.8398"/><line style="stroke: #A80036; stroke-width: 1.0; stroke-dasharray: 5.0,5.0;" x1="506.5" x2="506.5" y1="83.4883" y2="324.8398"/><text fill="#000000" font-family="sans-serif" font-size="14" lengthAdjust="spacingAndGlyphs" textLength="30" x="5" y="80.5352">user</text><ellipse cx="23" cy="10" fill="#FEFECE" filter="url(#f1)" rx="8" ry="8" style="stroke: #A80036; stroke-width: 2.0;"/><path d="M23,18 L23,45 M10,26 L36,26 M23,45 L10,60 M23,45 L36,60 " fill="#FEFECE" filter="url(#f1)" style="stroke: #A80036; stroke-width: 2.0;"/><text fill="#000000" font-family="sans-serif" font-size="14" lengthAdjust="spacingAndGlyphs" textLength="30" x="5" y="337.0469">user</text><ellipse cx="23" cy="350" fill="#FEFECE" filter="url(#f1)" rx="8" ry="8" style="stroke: #A80036; stroke-width: 2.0;"/><path d="M23,358 L23,385 M10,366 L36,366 M23,385 L10,400 M23,385 L36,400 " fill="#FEFECE" filter="url(#f1)" style="stroke: #A80036; stroke-width: 2.0;"/><rect fill="#FEFECE" filter="url(#f1)" height="30.4883" style="stroke: #A80036; stroke-width: 1.5;" width="44" x="99" y="48"/><text fill="#000000" font-family="sans-serif" font-size="14" lengthAdjust="spacingAndGlyphs" textLength="30" x="106" y="68.5352">view</text><rect fill="#FEFECE" filter="url(#f1)" height="30.4883" style="stroke: #A80036; stroke-width: 1.5;" width="44" x="99" y="323.5117"/><text fill="#000000" font-family="sans-serif" font-size="14" lengthAdjust="spacingAndGlyphs" textLength="30" x="106" y="344.0469">view</text><rect fill="#FEFECE" filter="url(#f1)" height="30.4883" style="stroke: #A80036; stroke-width: 1.5;" width="81" x="206.5" y="48"/><text fill="#000000" font-family="sans-serif" font-size="14" lengthAdjust="spacingAndGlyphs" textLength="67" x="213.5" y="68.5352">controller</text><rect fill="#FEFECE" filter="url(#f1)" height="30.4883" style="stroke: #A80036; stroke-width: 1.5;" width="81" x="206.5" y="323.5117"/><text fill="#000000" font-family="sans-serif" font-size="14" lengthAdjust="spacingAndGlyphs" textLength="67" x="213.5" y="344.0469">controller</text><rect fill="#FEFECE" filter="url(#f1)" height="30.4883" style="stroke: #A80036; stroke-width: 1.5;" width="82" x="301.5" y="323.5117"/><text fill="#000000" font-family="sans-serif" font-size="14" lengthAdjust="spacingAndGlyphs" textLength="68" x="308.5" y="344.0469">command</text><rect fill="#FEFECE" filter="url(#f1)" height="30.4883" style="stroke: #A80036; stroke-width: 1.5;" width="65" x="397.5" y="48"/><text fill="#000000" font-family="sans-serif" font-size="14" lengthAdjust="spacingAndGlyphs" textLength="51" x="404.5" y="68.5352">invoker</text><rect fill="#FEFECE" filter="url(#f1)" height="30.4883" style="stroke: #A80036; stroke-width: 1.5;" width="65" x="397.5" y="323.5117"/><text fill="#000000" font-family="sans-serif" font-size="14" lengthAdjust="spacingAndGlyphs" textLength="51" x="404.5" y="344.0469">invoker</text><rect fill="#FEFECE" filter="url(#f1)" height="30.4883" style="stroke: #A80036; stroke-width: 1.5;" width="57" x="476.5" y="48"/><text fill="#000000" font-family="sans-serif" font-size="14" lengthAdjust="spacingAndGlyphs" textLength="43" x="483.5" y="68.5352">model</text><rect fill="#FEFECE" filter="url(#f1)" height="30.4883" style="stroke: #A80036; stroke-width: 1.5;" width="57" x="476.5" y="323.5117"/><text fill="#000000" font-family="sans-serif" font-size="14" lengthAdjust="spacingAndGlyphs" textLength="43" x="483.5" y="344.0469">model</text><polygon fill="#A80036" points="111,110.4883,121,114.4883,111,118.4883,115,114.4883" style="stroke: #A80036; stroke-width: 1.0;"/><line style="stroke: #A80036; stroke-width: 1.0;" x1="23" x2="117" y1="114.4883" y2="114.4883"/><text fill="#000000" font-family="sans-serif" font-size="13" lengthAdjust="spacingAndGlyphs" textLength="76" x="30" y="110.0566">click button</text><polygon fill="#A80036" points="237,139.7988,247,143.7988,237,147.7988,241,143.7988" style="stroke: #A80036; stroke-width: 1.0;"/><line style="stroke: #A80036; stroke-width: 1.0;" x1="123" x2="243" y1="143.7988" y2="143.7988"/><text fill="#000000" font-family="sans-serif" font-size="13" lengthAdjust="spacingAndGlyphs" textLength="102" x="130" y="139.3672">button_clicked()</text><polygon fill="#A80036" points="289.5,169.1094,299.5,173.1094,289.5,177.1094,293.5,173.1094" style="stroke: #A80036; stroke-width: 1.0;"/><line style="stroke: #A80036; stroke-width: 1.0;" x1="249" x2="295.5" y1="173.1094" y2="173.1094"/><text fill="#000000" font-family="sans-serif" font-size="13" lengthAdjust="spacingAndGlyphs" textLength="25" x="256" y="168.6777">new</text><rect fill="#FEFECE" filter="url(#f1)" height="30.4883" style="stroke: #A80036; stroke-width: 1.5;" width="82" x="301.5" y="152.1094"/><text fill="#000000" font-family="sans-serif" font-size="14" lengthAdjust="spacingAndGlyphs" textLength="68" x="308.5" y="172.6445">command</text><polygon fill="#A80036" points="420,214.5977,430,218.5977,420,222.5977,424,218.5977" style="stroke: #A80036; stroke-width: 1.0;"/><line style="stroke: #A80036; stroke-width: 1.0;" x1="249" x2="426" y1="218.5977" y2="218.5977"/><text fill="#000000" font-family="sans-serif" font-size="13" lengthAdjust="spacingAndGlyphs" textLength="89" x="256" y="214.166">set(command)</text><polygon fill="#A80036" points="420,243.9082,430,247.9082,420,251.9082,424,247.9082" style="stroke: #A80036; stroke-width: 1.0;"/><line style="stroke: #A80036; stroke-width: 1.0;" x1="249" x2="426" y1="247.9082" y2="247.9082"/><text fill="#000000" font-family="sans-serif" font-size="13" lengthAdjust="spacingAndGlyphs" textLength="57" x="256" y="243.4766">execute()</text><polygon fill="#A80036" points="355.5,273.2188,345.5,277.2188,355.5,281.2188,351.5,277.2188" style="stroke: #A80036; stroke-width: 1.0;"/><line style="stroke: #A80036; stroke-width: 1.0;" x1="349.5" x2="431" y1="277.2188" y2="277.2188"/><text fill="#000000" font-family="sans-serif" font-size="13" lengthAdjust="spacingAndGlyphs" textLength="57" x="361.5" y="272.7871">execute()</text><polygon fill="#A80036" points="495,302.5293,505,306.5293,495,310.5293,499,306.5293" style="stroke: #A80036; stroke-width: 1.0;"/><line style="stroke: #A80036; stroke-width: 1.0;" x1="344.5" x2="501" y1="306.5293" y2="306.5293"/><text fill="#000000" font-family="sans-serif" font-size="13" lengthAdjust="spacingAndGlyphs" textLength="45" x="351.5" y="302.0977">change</text></g></svg>