<?xml version="1.0" encoding="UTF-8" standalone="yes"?><svg xmlns="http://www.w3.org/2000/svg" xmlns:xlink="http://www.w3.org/1999/xlink" height="487pt" style="width:548px;height:487px;" version="1.1" viewBox="0 0 548 487" width="548pt"><defs><filter height="300%" id="f1" width="300%" x="-1" y="-1"><feGaussianBlur result="blurOut" stdDeviation="2.0"/><feColorMatrix in="blurOut" result="blurOut2" type="matrix" values="0 0 0 0 0 0 0 0 0 0 0 0 0 0 0 0 0 0 .4 0"/><feOffset dx="4.0" dy="4.0" in="blurOut2" result="blurOut3"/><feBlend in="SourceGraphic" in2="blurOut3" mode="normal"/></filter></defs><g><rect fill="#FEFECE" filter="url(#f1)" height="73.9102" style="stroke: #A80036; stroke-width: 1.5;" width="158" x="381.5" y="148"/><ellipse cx="396.5" cy="164" fill="#ADD1B2" rx="11" ry="11" style="stroke: #A80036; stroke-width: 1.0;"/><path d="M399.4731,169.6431 Q398.8921,169.9419 398.2529,170.0913 Q397.6138,170.2407 396.9082,170.2407 Q394.4014,170.2407 393.0815,168.5889 Q391.7617,166.937 391.7617,163.8159 Q391.7617,160.6865 393.0815,159.0347 Q394.4014,157.3828 396.9082,157.3828 Q397.6138,157.3828 398.2612,157.5322 Q398.9087,157.6816 399.4731,157.9805 L399.4731,160.7031 Q398.8423,160.1221 398.2488,159.8523 Q397.6553,159.5825 397.0244,159.5825 Q395.6797,159.5825 394.9949,160.6492 Q394.3101,161.7158 394.3101,163.8159 Q394.3101,165.9077 394.9949,166.9744 Q395.6797,168.041 397.0244,168.041 Q397.6553,168.041 398.2488,167.7712 Q398.8423,167.5015 399.4731,166.9204 Z "/><text fill="#000000" font-family="sans-serif" font-size="12" lengthAdjust="spacingAndGlyphs" textLength="80" x="410.5" y="168.5352">StormTrooper</text><rect fill="#FFFFFF" height="16.1328" style="stroke: #000000; stroke-width: 1.0; stroke-dasharray: 2.0,2.0;" width="44" x="498.5" y="145"/><text fill="#000000" font-family="sans-serif" font-size="12" font-style="italic" lengthAdjust="spacingAndGlyphs" textLength="42" x="499.5" y="157.6016">Invoker</text><line style="stroke: #A80036; stroke-width: 1.5;" x1="382.5" x2="538.5" y1="180" y2="180"/><ellipse cx="392.5" cy="191.9775" fill="none" rx="3" ry="3" style="stroke: #038048; stroke-width: 1.0;"/><text fill="#000000" font-family="sans-serif" font-size="11" lengthAdjust="spacingAndGlyphs" textLength="53" x="401.5" y="194.6348">command</text><line style="stroke: #A80036; stroke-width: 1.5;" x1="382.5" x2="538.5" y1="200.9551" y2="200.9551"/><ellipse cx="392.5" cy="212.9326" fill="#84BE84" rx="3" ry="3" style="stroke: #038048; stroke-width: 1.0;"/><text fill="#000000" font-family="sans-serif" font-size="11" lengthAdjust="spacingAndGlyphs" textLength="50" x="401.5" y="215.5898">execute()</text><rect fill="#FEFECE" filter="url(#f1)" height="60.9551" style="stroke: #A80036; stroke-width: 1.5;" width="91" x="221" y="154.5"/><ellipse cx="236" cy="170.5" fill="#B4A7E5" rx="11" ry="11" style="stroke: #A80036; stroke-width: 1.0;"/><path d="M231.9277,166.2651 L231.9277,164.1069 L239.3071,164.1069 L239.3071,166.2651 L236.8418,166.2651 L236.8418,174.3418 L239.3071,174.3418 L239.3071,176.5 L231.9277,176.5 L231.9277,174.3418 L234.3931,174.3418 L234.3931,166.2651 Z "/><text fill="#000000" font-family="sans-serif" font-size="12" font-style="italic" lengthAdjust="spacingAndGlyphs" textLength="59" x="250" y="175.0352">Command</text><line style="stroke: #A80036; stroke-width: 1.5;" x1="222" x2="311" y1="186.5" y2="186.5"/><line style="stroke: #A80036; stroke-width: 1.5;" x1="222" x2="311" y1="194.5" y2="194.5"/><text fill="#000000" font-family="sans-serif" font-size="11" lengthAdjust="spacingAndGlyphs" textLength="50" x="227" y="209.1348">execute()</text><rect fill="#FEFECE" filter="url(#f1)" height="60.9551" style="stroke: #A80036; stroke-width: 1.5;" width="137" x="144" y="283"/><ellipse cx="159" cy="299" fill="#ADD1B2" rx="11" ry="11" style="stroke: #A80036; stroke-width: 1.0;"/><path d="M161.9731,304.6431 Q161.3921,304.9419 160.7529,305.0913 Q160.1138,305.2407 159.4082,305.2407 Q156.9014,305.2407 155.5815,303.5889 Q154.2617,301.937 154.2617,298.8159 Q154.2617,295.6865 155.5815,294.0347 Q156.9014,292.3828 159.4082,292.3828 Q160.1138,292.3828 160.7612,292.5322 Q161.4087,292.6816 161.9731,292.9805 L161.9731,295.7031 Q161.3423,295.1221 160.7488,294.8523 Q160.1553,294.5825 159.5244,294.5825 Q158.1797,294.5825 157.4949,295.6492 Q156.8101,296.7158 156.8101,298.8159 Q156.8101,300.9077 157.4949,301.9744 Q158.1797,303.041 159.5244,303.041 Q160.1553,303.041 160.7488,302.7712 Q161.3423,302.5015 161.9731,301.9204 Z "/><text fill="#000000" font-family="sans-serif" font-size="12" lengthAdjust="spacingAndGlyphs" textLength="105" x="173" y="303.5352">CheckIdCommand</text><line style="stroke: #A80036; stroke-width: 1.5;" x1="145" x2="280" y1="315" y2="315"/><ellipse cx="155" cy="326.9775" fill="none" rx="3" ry="3" style="stroke: #038048; stroke-width: 1.0;"/><text fill="#000000" font-family="sans-serif" font-size="11" lengthAdjust="spacingAndGlyphs" textLength="42" x="164" y="329.6348">suspect</text><line style="stroke: #A80036; stroke-width: 1.5;" x1="145" x2="280" y1="335.9551" y2="335.9551"/><rect fill="#FEFECE" filter="url(#f1)" height="60.9551" style="stroke: #A80036; stroke-width: 1.5;" width="150" x="333.5" y="283"/><ellipse cx="348.5" cy="299" fill="#ADD1B2" rx="11" ry="11" style="stroke: #A80036; stroke-width: 1.0;"/><path d="M351.4731,304.6431 Q350.8921,304.9419 350.2529,305.0913 Q349.6138,305.2407 348.9082,305.2407 Q346.4014,305.2407 345.0815,303.5889 Q343.7617,301.937 343.7617,298.8159 Q343.7617,295.6865 345.0815,294.0347 Q346.4014,292.3828 348.9082,292.3828 Q349.6138,292.3828 350.2612,292.5322 Q350.9087,292.6816 351.4731,292.9805 L351.4731,295.7031 Q350.8423,295.1221 350.2488,294.8523 Q349.6553,294.5825 349.0244,294.5825 Q347.6797,294.5825 346.9949,295.6492 Q346.3101,296.7158 346.3101,298.8159 Q346.3101,300.9077 346.9949,301.9744 Q347.6797,303.041 349.0244,303.041 Q349.6553,303.041 350.2488,302.7712 Q350.8423,302.5015 351.4731,301.9204 Z "/><text fill="#000000" font-family="sans-serif" font-size="12" lengthAdjust="spacingAndGlyphs" textLength="118" x="362.5" y="303.5352">CheckShipCommand</text><line style="stroke: #A80036; stroke-width: 1.5;" x1="334.5" x2="482.5" y1="315" y2="315"/><ellipse cx="344.5" cy="326.9775" fill="none" rx="3" ry="3" style="stroke: #038048; stroke-width: 1.0;"/><text fill="#000000" font-family="sans-serif" font-size="11" lengthAdjust="spacingAndGlyphs" textLength="54" x="353.5" y="329.6348">spaceship</text><line style="stroke: #A80036; stroke-width: 1.5;" x1="334.5" x2="482.5" y1="335.9551" y2="335.9551"/><rect fill="#FEFECE" filter="url(#f1)" height="73.9102" style="stroke: #A80036; stroke-width: 1.5;" width="129" x="137" y="405"/><ellipse cx="152" cy="421" fill="#ADD1B2" rx="11" ry="11" style="stroke: #A80036; stroke-width: 1.0;"/><path d="M154.9731,426.6431 Q154.3921,426.9419 153.7529,427.0913 Q153.1138,427.2407 152.4082,427.2407 Q149.9014,427.2407 148.5815,425.5889 Q147.2617,423.937 147.2617,420.8159 Q147.2617,417.6865 148.5815,416.0347 Q149.9014,414.3828 152.4082,414.3828 Q153.1138,414.3828 153.7612,414.5322 Q154.4087,414.6816 154.9731,414.9805 L154.9731,417.7031 Q154.3423,417.1221 153.7488,416.8523 Q153.1553,416.5825 152.5244,416.5825 Q151.1797,416.5825 150.4949,417.6492 Q149.8101,418.7158 149.8101,420.8159 Q149.8101,422.9077 150.4949,423.9744 Q151.1797,425.041 152.5244,425.041 Q153.1553,425.041 153.7488,424.7712 Q154.3423,424.5015 154.9731,423.9204 Z "/><text fill="#000000" font-family="sans-serif" font-size="12" lengthAdjust="spacingAndGlyphs" textLength="44" x="166" y="425.5352">Suspect</text><rect fill="#FFFFFF" height="16.1328" style="stroke: #000000; stroke-width: 1.0; stroke-dasharray: 2.0,2.0;" width="51" x="218" y="402"/><text fill="#000000" font-family="sans-serif" font-size="12" font-style="italic" lengthAdjust="spacingAndGlyphs" textLength="49" x="219" y="414.6016">Reciever</text><line style="stroke: #A80036; stroke-width: 1.5;" x1="138" x2="265" y1="437" y2="437"/><ellipse cx="148" cy="448.9775" fill="none" rx="3" ry="3" style="stroke: #038048; stroke-width: 1.0;"/><text fill="#000000" font-family="sans-serif" font-size="11" lengthAdjust="spacingAndGlyphs" textLength="10" x="157" y="451.6348">id</text><line style="stroke: #A80036; stroke-width: 1.5;" x1="138" x2="265" y1="457.9551" y2="457.9551"/><ellipse cx="148" cy="469.9326" fill="#84BE84" rx="3" ry="3" style="stroke: #038048; stroke-width: 1.0;"/><text fill="#000000" font-family="sans-serif" font-size="11" lengthAdjust="spacingAndGlyphs" textLength="35" x="157" y="472.5898">getId()</text><rect fill="#FEFECE" filter="url(#f1)" height="60.9551" style="stroke: #A80036; stroke-width: 1.5;" width="61" x="6" y="411.5"/><ellipse cx="24.15" cy="427.5" fill="#ADD1B2" rx="11" ry="11" style="stroke: #A80036; stroke-width: 1.0;"/><path d="M27.1231,433.1431 Q26.5421,433.4419 25.9029,433.5913 Q25.2638,433.7407 24.5582,433.7407 Q22.0514,433.7407 20.7315,432.0889 Q19.4117,430.437 19.4117,427.3159 Q19.4117,424.1865 20.7315,422.5347 Q22.0514,420.8828 24.5582,420.8828 Q25.2638,420.8828 25.9112,421.0322 Q26.5587,421.1816 27.1231,421.4805 L27.1231,424.2031 Q26.4923,423.6221 25.8988,423.3523 Q25.3053,423.0825 24.6744,423.0825 Q23.3297,423.0825 22.6449,424.1492 Q21.9601,425.2158 21.9601,427.3159 Q21.9601,429.4077 22.6449,430.4744 Q23.3297,431.541 24.6744,431.541 Q25.3053,431.541 25.8988,431.2712 Q26.4923,431.0015 27.1231,430.4204 Z "/><text fill="#000000" font-family="sans-serif" font-size="12" lengthAdjust="spacingAndGlyphs" textLength="22" x="38.85" y="432.0352">Jedi</text><line style="stroke: #A80036; stroke-width: 1.5;" x1="7" x2="66" y1="443.5" y2="443.5"/><line style="stroke: #A80036; stroke-width: 1.5;" x1="7" x2="66" y1="451.5" y2="451.5"/><ellipse cx="17" cy="463.4775" fill="#84BE84" rx="3" ry="3" style="stroke: #038048; stroke-width: 1.0;"/><text fill="#000000" font-family="sans-serif" font-size="11" lengthAdjust="spacingAndGlyphs" textLength="35" x="26" y="466.1348">getId()</text><rect fill="#FEFECE" filter="url(#f1)" height="73.9102" style="stroke: #A80036; stroke-width: 1.5;" width="159" x="336" y="405"/><ellipse cx="373.5" cy="421" fill="#ADD1B2" rx="11" ry="11" style="stroke: #A80036; stroke-width: 1.0;"/><path d="M376.4731,426.6431 Q375.8921,426.9419 375.2529,427.0913 Q374.6138,427.2407 373.9082,427.2407 Q371.4014,427.2407 370.0815,425.5889 Q368.7617,423.937 368.7617,420.8159 Q368.7617,417.6865 370.0815,416.0347 Q371.4014,414.3828 373.9082,414.3828 Q374.6138,414.3828 375.2612,414.5322 Q375.9087,414.6816 376.4731,414.9805 L376.4731,417.7031 Q375.8423,417.1221 375.2488,416.8523 Q374.6553,416.5825 374.0244,416.5825 Q372.6797,416.5825 371.9949,417.6492 Q371.3101,418.7158 371.3101,420.8159 Q371.3101,422.9077 371.9949,423.9744 Q372.6797,425.041 374.0244,425.041 Q374.6553,425.041 375.2488,424.7712 Q375.8423,424.5015 376.4731,423.9204 Z "/><text fill="#000000" font-family="sans-serif" font-size="12" lengthAdjust="spacingAndGlyphs" textLength="24" x="392.5" y="425.5352">Ship</text><rect fill="#FFFFFF" height="16.1328" style="stroke: #000000; stroke-width: 1.0; stroke-dasharray: 2.0,2.0;" width="51" x="447" y="402"/><text fill="#000000" font-family="sans-serif" font-size="12" font-style="italic" lengthAdjust="spacingAndGlyphs" textLength="49" x="448" y="414.6016">Reciever</text><line style="stroke: #A80036; stroke-width: 1.5;" x1="337" x2="494" y1="437" y2="437"/><ellipse cx="347" cy="448.9775" fill="none" rx="3" ry="3" style="stroke: #038048; stroke-width: 1.0;"/><text fill="#000000" font-family="sans-serif" font-size="11" lengthAdjust="spacingAndGlyphs" textLength="67" x="356" y="451.6348">name: String</text><ellipse cx="347" cy="461.9326" fill="none" rx="3" ry="3" style="stroke: #038048; stroke-width: 1.0;"/><text fill="#000000" font-family="sans-serif" font-size="11" lengthAdjust="spacingAndGlyphs" textLength="133" x="356" y="464.5898">suspects: List&lt;Suspect&gt;</text><line style="stroke: #A80036; stroke-width: 1.5;" x1="337" x2="494" y1="470.9102" y2="470.9102"/><rect fill="#FEFECE" filter="url(#f1)" height="48" style="stroke: #A80036; stroke-width: 1.5;" width="64" x="331.5" y="8"/><ellipse cx="346.5" cy="24" fill="#ADD1B2" rx="11" ry="11" style="stroke: #A80036; stroke-width: 1.0;"/><path d="M349.4731,29.6431 Q348.8921,29.9419 348.2529,30.0913 Q347.6138,30.2407 346.9082,30.2407 Q344.4014,30.2407 343.0815,28.5889 Q341.7617,26.937 341.7617,23.8159 Q341.7617,20.6865 343.0815,19.0347 Q344.4014,17.3828 346.9082,17.3828 Q347.6138,17.3828 348.2612,17.5322 Q348.9087,17.6816 349.4731,17.9805 L349.4731,20.7031 Q348.8423,20.1221 348.2488,19.8523 Q347.6553,19.5825 347.0244,19.5825 Q345.6797,19.5825 344.9949,20.6492 Q344.3101,21.7158 344.3101,23.8159 Q344.3101,25.9077 344.9949,26.9744 Q345.6797,28.041 347.0244,28.041 Q347.6553,28.041 348.2488,27.7712 Q348.8423,27.5015 349.4731,26.9204 Z "/><text fill="#000000" font-family="sans-serif" font-size="12" lengthAdjust="spacingAndGlyphs" textLength="32" x="360.5" y="28.5352">Client</text><line style="stroke: #A80036; stroke-width: 1.5;" x1="332.5" x2="394.5" y1="40" y2="40"/><line style="stroke: #A80036; stroke-width: 1.5;" x1="332.5" x2="394.5" y1="48" y2="48"/><path d="M378.444,56.263 C393.325,79.428 416.473,115.463 434.394,143.361 " fill="none" style="stroke: #A80036; stroke-width: 1.0; stroke-dasharray: 7.0,7.0;"/><polygon fill="#A80036" points="437.223,147.765,435.7237,138.0309,434.5204,143.5583,428.993,142.355,437.223,147.765" style="stroke: #A80036; stroke-width: 1.0;"/><text fill="#000000" font-family="sans-serif" font-size="13" lengthAdjust="spacingAndGlyphs" textLength="49" x="422.5" y="107.0684">invokes</text><path d="M348.556,56.263 C332.465,81.313 306.706,121.411 288.343,149.997 " fill="none" style="stroke: #A80036; stroke-width: 1.0; stroke-dasharray: 7.0,7.0;"/><polygon fill="#A80036" points="285.462,154.482,293.692,149.072,288.1646,150.2753,286.9613,144.7479,285.462,154.482" style="stroke: #A80036; stroke-width: 1.0;"/><text fill="#000000" font-family="sans-serif" font-size="13" lengthAdjust="spacingAndGlyphs" textLength="0" x="356" y="99.5684"/><text fill="#000000" font-family="sans-serif" font-size="13" lengthAdjust="spacingAndGlyphs" textLength="45" x="329.5" y="114.8789">creates</text><path d="M279.345,442 C293.788,442 308.231,442 322.674,442 " fill="none" style="stroke: #A80036; stroke-width: 1.0;"/><polygon fill="none" points="335.938,442,329.938,438,323.938,442,329.938,446,335.938,442" style="stroke: #A80036; stroke-width: 1.0;"/><polygon fill="#A80036" points="266.285,442,275.285,446,271.285,442,275.285,438,266.285,442" style="stroke: #A80036; stroke-width: 1.0;"/><line style="stroke: #A80036; stroke-width: 1.0;" x1="271.285" x2="279.285" y1="442" y2="441.9999"/><path d="M67.1152,442 C83.6604,442 100.2056,442 116.751,442 " fill="none" style="stroke: #A80036; stroke-width: 1.0;"/><polygon fill="none" points="116.932,434.9999,136.932,442,116.932,448.9999,116.932,434.9999" style="stroke: #A80036; stroke-width: 1.0;"/><path d="M245.938,234.169 C238.989,250.448 231.435,268.143 225.268,282.589 " fill="none" style="stroke: #A80036; stroke-width: 1.0; stroke-dasharray: 7.0,7.0;"/><polygon fill="none" points="239.549,231.305,253.839,215.659,252.425,236.801,239.549,231.305" style="stroke: #A80036; stroke-width: 1.0;"/><path d="M314.936,229.149 C334.681,246.739 357.024,266.643 374.924,282.589 " fill="none" style="stroke: #A80036; stroke-width: 1.0; stroke-dasharray: 7.0,7.0;"/><polygon fill="none" points="310.07,234.189,299.793,215.659,319.383,223.735,310.07,234.189" style="stroke: #A80036; stroke-width: 1.0;"/><path d="M208.791,357.158 C207.825,368.265 206.776,380.3233 205.783,391.7413 " fill="none" style="stroke: #A80036; stroke-width: 1.0;"/><polygon fill="#A80036" points="204.652,404.7555,209.4167,396.1359,205.0852,399.7743,201.4468,395.4428,204.652,404.7555" style="stroke: #A80036; stroke-width: 1.0;"/><line style="stroke: #A80036; stroke-width: 1.0;" x1="205.0852" x2="205.778" y1="399.7743" y2="391.8043"/><polygon fill="none" points="209.921,344.159,205.4165,349.7901,208.8819,356.1139,213.3864,350.4828,209.921,344.159" style="stroke: #A80036; stroke-width: 1.0;"/><text fill="#000000" font-family="sans-serif" font-size="13" lengthAdjust="spacingAndGlyphs" textLength="6" x="202.7703" y="364.6343">*</text><text fill="#000000" font-family="sans-serif" font-size="13" lengthAdjust="spacingAndGlyphs" textLength="8" x="196.501" y="394.3894">1</text><path d="M410.86,357.158 C411.475,368.265 412.142,380.3233 412.774,391.7413 " fill="none" style="stroke: #A80036; stroke-width: 1.0;"/><polygon fill="#A80036" points="413.494,404.7555,416.9905,395.5482,413.2177,399.7631,409.0027,395.9903,413.494,404.7555" style="stroke: #A80036; stroke-width: 1.0;"/><line style="stroke: #A80036; stroke-width: 1.0;" x1="413.2177" x2="412.776" y1="399.7631" y2="391.7754"/><polygon fill="none" points="410.141,344.159,406.4788,350.3709,410.8043,356.1407,414.4665,349.9287,410.141,344.159" style="stroke: #A80036; stroke-width: 1.0;"/><text fill="#000000" font-family="sans-serif" font-size="13" lengthAdjust="spacingAndGlyphs" textLength="6" x="403.8607" y="364.6343">*</text><text fill="#000000" font-family="sans-serif" font-size="13" lengthAdjust="spacingAndGlyphs" textLength="8" x="404.4242" y="394.3894">1</text><path d="M325.529,185 C339.741,185 353.952,185 368.164,185 " fill="none" style="stroke: #A80036; stroke-width: 1.0;"/><polygon fill="none" points="381.215,185,375.215,181,369.215,185,375.215,189,381.215,185" style="stroke: #A80036; stroke-width: 1.0;"/><polygon fill="#A80036" points="312.348,185,321.348,189,317.348,185,321.348,181,312.348,185" style="stroke: #A80036; stroke-width: 1.0;"/><line style="stroke: #A80036; stroke-width: 1.0;" x1="317.348" x2="325.348" y1="185" y2="185"/><text fill="#000000" font-family="sans-serif" font-size="13" lengthAdjust="spacingAndGlyphs" textLength="8" x="319.981" y="181.4471">1</text><text fill="#000000" font-family="sans-serif" font-size="13" lengthAdjust="spacingAndGlyphs" textLength="6" x="367.3722" y="181.8726">*</text></g></svg>